ffmpeg started on 2016-12-03 at 13:36:29
Report written to "Output/x264/results/ffmpeg/old_town_cross_2160p50placebo11000k.log"
Command line:
Tools/ffmpeg/ffmpeg -benchmark -y -i Input/y4m/old_town_cross_2160p50.y4m -c:v libx264 -preset placebo -b:v 11000k -an Output/x264/encoded/old_town_cross_2160p50placebo11000k.mkv
ffmpeg version N-82227-gdb23fde Copyright (c) 2000-2016 the FFmpeg developers
  built with gcc 5.4.0 (Ubuntu 5.4.0-6ubuntu1~16.04.2) 20160609
  configuration: --prefix=/home/jaroslav/ffmpeg_build --pkg-config-flags=--static --extra-cflags=-I/home/jaroslav/ffmpeg_build/include --extra-ldflags=-L/home/jaroslav/ffmpeg_build/lib --bindir=/home/jaroslav/bin --enable-gpl --enable-libass --enable-libfdk-aac --enable-libfreetype --enable-libmp3lame --enable-libopus --enable-libtheora --enable-libvorbis --enable-libvpx --enable-libx264 --enable-libx265 --enable-nvenc --enable-libmfx --enable-libxvid --enable-libgsm --enable-libopencore-amrnb --enable-version3 --enable-nonfree
  libavutil      55. 35.100 / 55. 35.100
  libavcodec     57. 66.101 / 57. 66.101
  libavformat    57. 57.100 / 57. 57.100
  libavdevice    57.  2.100 / 57.  2.100
  libavfilter     6. 66.100 /  6. 66.100
  libswscale      4.  3.100 /  4.  3.100
  libswresample   2.  4.100 /  2.  4.100
  libpostproc    54.  2.100 / 54.  2.100
Input #0, yuv4mpegpipe, from 'Input/y4m/old_town_cross_2160p50.y4m':
  Duration: 00:00:10.00, start: 0.000000, bitrate: 4976642 kb/s
    Stream #0:0: Video: rawvideo (I420 / 0x30323449), yuv420p(progressive), 3840x2160, SAR 1:1 DAR 16:9, 50 fps, 50 tbr, 50 tbn, 50 tbc
[libx264 @ 0x35d6120] using SAR=1/1
[libx264 @ 0x35d6120] DPB size (16 frames, 518400 mbs) > level limit (5 frames, 184320 mbs)
[libx264 @ 0x35d6120] using cpu capabilities: MMX2 SSE2Fast SSSE3 SSE4.2 AVX FMA3 AVX2 LZCNT BMI2
[libx264 @ 0x35d6120] profile High, level 5.2
[libx264 @ 0x35d6120] 264 - core 148 - H.264/MPEG-4 AVC codec - Copyleft 2003-2016 - http://www.videolan.org/x264.html - options: cabac=1 ref=16 deblock=1:0:0 analyse=0x3:0x133 me=tesa subme=11 psy=1 psy_rd=1.00:0.00 mixed_ref=1 me_range=24 chroma_me=1 trellis=2 8x8dct=1 cqm=0 deadzone=21,11 fast_pskip=0 chroma_qp_offset=-2 threads=6 lookahead_threads=1 sliced_threads=0 nr=0 decimate=1 interlaced=0 bluray_compat=0 constrained_intra=0 bframes=16 b_pyramid=2 b_adapt=2 b_bias=0 direct=3 weightb=1 open_gop=0 weightp=2 keyint=250 keyint_min=25 scenecut=40 intra_refresh=0 rc_lookahead=60 rc=abr mbtree=1 bitrate=11000 ratetol=1.0 qcomp=0.60 qpmin=0 qpmax=69 qpstep=4 ip_ratio=1.40 aq=1:1.00
Output #0, matroska, to 'Output/x264/encoded/old_town_cross_2160p50placebo11000k.mkv':
  Metadata:
    encoder         : Lavf57.57.100
    Stream #0:0: Video: h264 (libx264) (H264 / 0x34363248), yuv420p, 3840x2160 [SAR 1:1 DAR 16:9], q=-1--1, 11000 kb/s, 50 fps, 1k tbn, 50 tbc
    Metadata:
      encoder         : Lavc57.66.101 libx264
    Side data:
      cpb: bitrate max/min/avg: 0/0/11000000 buffer size: 0 vbv_delay: -1
Stream mapping:
  Stream #0:0 -> #0:0 (rawvideo (native) -> h264 (libx264))
Press [q] to stop, [?] for help
frame=   58 fps=0.0 q=0.0 size=       0kB time=00:00:00.00 bitrate=N/A speed=   0x    frame=   84 fps=3.3 q=0.0 size=       0kB time=00:00:00.00 bitrate=N/A speed=   0x    frame=   89 fps=3.1 q=33.0 size=       1kB time=-00:00:00.01 bitrate=N/A speed=N/A    frame=   90 fps=2.3 q=33.0 size=       1kB time=00:00:00.00 bitrate=5888.0kbits/s speed=2.6e-05x    frame=   91 fps=2.2 q=33.0 size=       1kB time=00:00:00.02 bitrate= 280.4kbits/s speed=0.000512x    frame=   92 fps=2.1 q=33.0 size=       1kB time=00:00:00.04 bitrate= 143.6kbits/s speed=0.000948x    frame=   96 fps=1.8 q=33.0 size=       1kB time=00:00:00.12 bitrate=  48.7kbits/s speed=0.00233x    frame=   97 fps=1.8 q=33.0 size=       1kB time=00:00:00.14 bitrate=  41.8kbits/s speed=0.00261x    frame=   98 fps=1.8 q=41.0 size=       1kB time=00:00:00.16 bitrate=  36.6kbits/s speed=0.00291x    frame=   99 fps=1.8 q=37.0 size=       1kB time=00:00:00.18 bitrate=  32.5kbits/s speed=0.00322x    frame=  102 fps=1.7 q=35.0 size=       1kB time=00:00:00.24 bitrate=  24.4kbits/s speed=0.00393x    frame=  103 fps=1.6 q=36.0 size=       1kB time=00:00:00.26 bitrate=  22.6kbits/s speed=0.00405x    frame=  106 fps=1.5 q=39.0 size=       1kB time=00:00:00.32 bitrate=  18.3kbits/s speed=0.00449x    frame=  108 fps=1.5 q=45.0 size=       1kB time=00:00:00.36 bitrate=  16.3kbits/s speed=0.00491x    frame=  109 fps=1.4 q=43.0 size=       1kB time=00:00:00.38 bitrate=  15.5kbits/s speed=0.00493x    frame=  112 fps=1.4 q=42.0 size=       1kB time=00:00:00.44 bitrate=  13.4kbits/s speed=0.00553x    frame=  115 fps=1.4 q=43.0 size=       1kB time=00:00:00.50 bitrate=  11.8kbits/s speed=0.00603x    frame=  116 fps=1.4 q=43.0 size=       1kB time=00:00:00.52 bitrate=  11.3kbits/s speed=0.00607x    frame=  118 fps=1.4 q=44.0 size=       1kB time=00:00:00.56 bitrate=  10.5kbits/s speed=0.00644x    frame=  121 fps=1.3 q=45.0 size=       1kB time=00:00:00.62 bitrate=   9.5kbits/s speed=0.00682x    frame=  122 fps=1.3 q=41.0 size=       1kB time=00:00:00.64 bitrate=   9.2kbits/s speed=0.00678x    frame=  124 fps=1.3 q=45.0 size=       1kB time=00:00:00.68 bitrate=   8.6kbits/s speed=0.00717x    frame=  127 fps=1.3 q=44.0 size=       1kB time=00:00:00.74 bitrate=   7.9kbits/s speed=0.00761x    frame=  128 fps=1.2 q=43.0 size=       1kB time=00:00:00.76 bitrate=   7.7kbits/s speed=0.00725x    frame=  129 fps=1.2 q=43.0 size=       1kB time=00:00:00.78 bitrate=   7.5kbits/s speed=0.00738x    frame=  130 fps=1.2 q=42.0 size=       1kB time=00:00:00.80 bitrate=   7.4kbits/s speed=0.00749x    frame=  134 fps=1.2 q=39.0 size=       1kB time=00:00:00.88 bitrate=   6.7kbits/s speed=0.00787x    frame=  135 fps=1.2 q=40.0 size=       1kB time=00:00:00.90 bitrate=   6.5kbits/s speed=0.00792x    frame=  136 fps=1.2 q=41.0 size=       1kB time=00:00:00.92 bitrate=   6.4kbits/s speed=0.00803x    frame=  137 fps=1.2 q=41.0 size=       1kB time=00:00:00.94 bitrate=   6.3kbits/s speed=0.00813x    frame=  139 fps=1.2 q=40.0 size=       1kB time=00:00:00.98 bitrate=   6.0kbits/s speed=0.00835x    frame=  140 fps=1.1 q=40.0 size=       1kB time=00:00:01.00 bitrate=   5.9kbits/s speed=0.00782x    frame=  141 fps=1.1 q=40.0 size=       1kB time=00:00:01.02 bitrate=   5.8kbits/s speed=0.00792x    frame=  142 fps=1.1 q=40.0 size=       1kB time=00:00:01.04 bitrate=   5.7kbits/s speed=0.00802x    frame=  146 fps=1.1 q=39.0 size=       1kB time=00:00:01.12 bitrate=   5.3kbits/s speed=0.00808x    frame=  148 fps=1.0 q=39.0 size=       1kB time=00:00:01.16 bitrate=   5.1kbits/s speed=0.00823x    frame=  149 fps=1.0 q=39.0 size=       1kB time=00:00:01.18 bitrate=   5.0kbits/s speed=0.00829x    frame=  150 fps=1.0 q=39.0 size=       1kB time=00:00:01.20 bitrate=   4.9kbits/s speed=0.00778x    frame=  151 fps=1.0 q=38.0 size=       1kB time=00:00:01.22 bitrate=   4.8kbits/s speed=0.00785x    frame=  152 fps=1.0 q=38.0 size=       1kB time=00:00:01.24 bitrate=   4.7kbits/s speed=0.00793x    frame=  156 fps=0.9 q=38.0 size=       1kB time=00:00:01.32 bitrate=   4.5kbits/s speed=0.00788x    frame=  158 fps=0.9 q=38.0 size=       1kB time=00:00:01.36 bitrate=   4.3kbits/s speed=0.00798x    frame=  160 fps=0.9 q=38.0 size=       1kB time=00:00:01.40 bitrate=   4.2kbits/s speed=0.00752x    frame=  161 fps=0.9 q=37.0 size=       1kB time=00:00:01.42 bitrate=   4.1kbits/s speed=0.00758x    frame=  162 fps=0.9 q=37.0 size=       1kB time=00:00:01.44 bitrate=   4.1kbits/s speed=0.00763x    frame=  166 fps=0.8 q=37.0 size=       1kB time=00:00:01.52 bitrate=   3.9kbits/s speed=0.00749x    frame=  167 fps=0.8 q=37.0 size=       1kB time=00:00:01.54 bitrate=   3.8kbits/s speed=0.00755x    frame=  168 fps=0.8 q=37.0 size=       1kB time=00:00:01.56 bitrate=   3.8kbits/s speed=0.00762x    frame=  169 fps=0.8 q=37.0 size=       1kB time=00:00:01.58 bitrate=   3.7kbits/s speed=0.00765x    frame=  170 fps=0.8 q=37.0 size=       1kB time=00:00:01.60 bitrate=   3.7kbits/s speed=0.00719x    frame=  171 fps=0.8 q=37.0 size=       1kB time=00:00:01.62 bitrate=   3.6kbits/s speed=0.00723x    frame=  172 fps=0.8 q=37.0 size=       1kB time=00:00:01.64 bitrate=   3.6kbits/s speed=0.00728x    frame=  176 fps=0.7 q=36.0 size=       1kB time=00:00:01.72 bitrate=   3.4kbits/s speed=0.00716x    frame=  177 fps=0.7 q=36.0 size=       1kB time=00:00:01.74 bitrate=   3.4kbits/s speed=0.00718x    frame=  178 fps=0.7 q=36.0 size=       1kB time=00:00:01.76 bitrate=   3.3kbits/s speed=0.00722x    frame=  179 fps=0.7 q=36.0 size=       1kB time=00:00:01.78 bitrate=   3.3kbits/s speed=0.00725x    frame=  181 fps=0.7 q=36.0 size=       1kB time=00:00:01.82 bitrate=   3.2kbits/s speed=0.0069x    frame=  182 fps=0.7 q=36.0 size=       1kB time=00:00:01.84 bitrate=   3.2kbits/s speed=0.00694x    frame=  183 fps=0.7 q=36.0 size=       1kB time=00:00:01.86 bitrate=   3.2kbits/s speed=0.00697x    frame=  187 fps=0.7 q=36.0 size=       1kB time=00:00:01.94 bitrate=   3.0kbits/s speed=0.00689x    frame=  188 fps=0.7 q=36.0 size=       1kB time=00:00:01.96 bitrate=   3.0kbits/s speed=0.00689x    frame=  189 fps=0.7 q=36.0 size=       1kB time=00:00:01.98 bitrate=   3.0kbits/s speed=0.00693x    frame=  190 fps=0.7 q=36.0 size=       1kB time=00:00:02.00 bitrate=   2.9kbits/s speed=0.00693x    frame=  192 fps=0.6 q=36.0 size=       1kB time=00:00:02.04 bitrate=   2.9kbits/s speed=0.00669x    frame=  193 fps=0.6 q=35.0 size=       1kB time=00:00:02.06 bitrate=   2.9kbits/s speed=0.00672x    frame=  194 fps=0.6 q=35.0 size=       1kB time=00:00:02.08 bitrate=   2.8kbits/s speed=0.00676x    frame=  198 fps=0.6 q=35.0 size=       1kB time=00:00:02.16 bitrate=   2.7kbits/s speed=0.00668x    frame=  199 fps=0.6 q=35.0 size=       1kB time=00:00:02.18 bitrate=   2.7kbits/s speed=0.00666x    frame=  200 fps=0.6 q=35.0 size=       1kB time=00:00:02.20 bitrate=   2.7kbits/s speed=0.00669x    frame=  201 fps=0.6 q=35.0 size=       1kB time=00:00:02.22 bitrate=   2.7kbits/s speed=0.00673x    frame=  203 fps=0.6 q=35.0 size=       1kB time=00:00:02.26 bitrate=   2.6kbits/s speed=0.00656x    frame=  204 fps=0.6 q=35.0 size=       1kB time=00:00:02.28 bitrate=   2.6kbits/s speed=0.00655x    frame=  205 fps=0.6 q=35.0 size=       1kB time=00:00:02.30 bitrate=   2.6kbits/s speed=0.00659x    frame=  206 fps=0.6 q=35.0 size=       1kB time=00:00:02.32 bitrate=   2.5kbits/s speed=0.00663x    frame=  207 fps=0.6 q=35.0 size=       1kB time=00:00:02.34 bitrate=   2.5kbits/s speed=0.00667x    frame=  209 fps=0.6 q=35.0 size=       1kB time=00:00:02.38 bitrate=   2.5kbits/s speed=0.00658x    frame=  210 fps=0.6 q=35.0 size=       1kB time=00:00:02.40 bitrate=   2.5kbits/s speed=0.00633x    frame=  211 fps=0.6 q=35.0 size=       1kB time=00:00:02.42 bitrate=   2.4kbits/s speed=0.00636x    frame=  212 fps=0.6 q=35.0 size=       1kB time=00:00:02.44 bitrate=   2.4kbits/s speed=0.00639x    frame=  216 fps=0.5 q=35.0 size=       1kB time=00:00:02.52 bitrate=   2.3kbits/s speed=0.00628x    frame=  218 fps=0.5 q=35.0 size=       1kB time=00:00:02.56 bitrate=   2.3kbits/s speed=0.00637x    frame=  219 fps=0.5 q=35.0 size=       1kB time=00:00:02.58 bitrate=   2.3kbits/s speed=0.00641x    frame=  220 fps=0.5 q=35.0 size=       1kB time=00:00:02.60 bitrate=   2.3kbits/s speed=0.0064x    frame=  221 fps=0.5 q=35.0 size=       1kB time=00:00:02.62 bitrate=   2.2kbits/s speed=0.00624x    frame=  222 fps=0.5 q=35.0 size=       1kB time=00:00:02.64 bitrate=   2.2kbits/s speed=0.00622x    frame=  223 fps=0.5 q=35.0 size=       1kB time=00:00:02.66 bitrate=   2.2kbits/s speed=0.00623x    frame=  227 fps=0.5 q=34.0 size=       1kB time=00:00:02.74 bitrate=   2.1kbits/s speed=0.00623x    frame=  228 fps=0.5 q=35.0 size=       1kB time=00:00:02.76 bitrate=   2.1kbits/s speed=0.00619x    frame=  229 fps=0.5 q=35.0 size=       1kB time=00:00:02.78 bitrate=   2.1kbits/s speed=0.0062x    frame=  230 fps=0.5 q=34.0 size=       1kB time=00:00:02.80 bitrate=   2.1kbits/s speed=0.00619x    frame=  232 fps=0.5 q=34.0 size=       1kB time=00:00:02.84 bitrate=   2.1kbits/s speed=0.00611x    frame=  233 fps=0.5 q=34.0 size=       1kB time=00:00:02.86 bitrate=   2.1kbits/s speed=0.00614x    frame=  234 fps=0.5 q=34.0 size=       1kB time=00:00:02.88 bitrate=   2.0kbits/s speed=0.00612x    frame=  236 fps=0.5 q=34.0 size=       1kB time=00:00:02.92 bitrate=   2.0kbits/s speed=0.00616x    frame=  238 fps=0.5 q=34.0 size=       1kB time=00:00:02.96 bitrate=   2.0kbits/s speed=0.00609x    frame=  239 fps=0.5 q=34.0 size=       1kB time=00:00:02.98 bitrate=   2.0kbits/s speed=0.00611x    frame=  240 fps=0.5 q=34.0 size=       1kB time=00:00:03.00 bitrate=   2.0kbits/s speed=0.00598x    frame=  241 fps=0.5 q=34.0 size=       1kB time=00:00:03.02 bitrate=   1.9kbits/s speed=0.006x    frame=  242 fps=0.5 q=34.0 size=       1kB time=00:00:03.04 bitrate=   1.9kbits/s speed=0.00602x    frame=  244 fps=0.5 q=34.0 size=       1kB time=00:00:03.08 bitrate=   1.9kbits/s speed=0.0061x    frame=  245 fps=0.5 q=34.0 size=       1kB time=00:00:03.10 bitrate=   1.9kbits/s speed=0.00613x    frame=  246 fps=0.5 q=34.0 size=       1kB time=00:00:03.12 bitrate=   1.9kbits/s speed=0.00598x    frame=  247 fps=0.5 q=34.0 size=       1kB time=00:00:03.14 bitrate=   1.9kbits/s speed=0.00598x    frame=  248 fps=0.5 q=34.0 size=       1kB time=00:00:03.16 bitrate=   1.9kbits/s speed=0.006x    frame=  249 fps=0.5 q=34.0 size=       1kB time=00:00:03.18 bitrate=   1.9kbits/s speed=0.00602x    frame=  251 fps=0.5 q=34.0 size=       1kB time=00:00:03.22 bitrate=   1.8kbits/s speed=0.00592x    frame=  252 fps=0.5 q=34.0 size=       1kB time=00:00:03.24 bitrate=   1.8kbits/s speed=0.00593x    frame=  253 fps=0.5 q=34.0 size=       1kB time=00:00:03.26 bitrate=   1.8kbits/s speed=0.00592x    frame=  254 fps=0.5 q=34.0 size=       1kB time=00:00:03.28 bitrate=   1.8kbits/s speed=0.00594x    frame=  257 fps=0.5 q=34.0 size=       1kB time=00:00:03.34 bitrate=   1.8kbits/s speed=0.00595x    frame=  258 fps=0.5 q=34.0 size=       1kB time=00:00:03.36 bitrate=   1.8kbits/s speed=0.00595x    frame=  259 fps=0.4 q=34.0 size=       1kB time=00:00:03.38 bitrate=   1.7kbits/s speed=0.00582x    frame=  260 fps=0.4 q=34.0 size=       1kB time=00:00:03.40 bitrate=   1.7kbits/s speed=0.00584x    frame=  261 fps=0.4 q=34.0 size=       1kB time=00:00:03.42 bitrate=   1.7kbits/s speed=0.00586x    frame=  265 fps=0.4 q=34.0 size=       1kB time=00:00:03.50 bitrate=   1.7kbits/s speed=0.00579x    frame=  266 fps=0.4 q=34.0 size=       1kB time=00:00:03.52 bitrate=   1.7kbits/s speed=0.0058x    frame=  267 fps=0.4 q=34.0 size=       1kB time=00:00:03.54 bitrate=   1.7kbits/s speed=0.00582x    frame=  269 fps=0.4 q=34.0 size=       1kB time=00:00:03.58 bitrate=   1.6kbits/s speed=0.00588x    frame=  270 fps=0.4 q=34.0 size=       1kB time=00:00:03.60 bitrate=   1.6kbits/s speed=0.00576x    frame=  271 fps=0.4 q=34.0 size=       1kB time=00:00:03.62 bitrate=   1.6kbits/s speed=0.00577x    frame=  272 fps=0.4 q=34.0 size=       1kB time=00:00:03.64 bitrate=   1.6kbits/s speed=0.00578x    frame=  274 fps=0.4 q=34.0 size=       1kB time=00:00:03.68 bitrate=   1.6kbits/s speed=0.00583x    frame=  275 fps=0.4 q=34.0 size=       1kB time=00:00:03.70 bitrate=   1.6kbits/s speed=0.00585x    frame=  276 fps=0.4 q=34.0 size=       1kB time=00:00:03.72 bitrate=   1.6kbits/s speed=0.00573x    frame=  277 fps=0.4 q=34.0 size=       1kB time=00:00:03.74 bitrate=   1.6kbits/s speed=0.00573x    frame=  278 fps=0.4 q=33.0 size=       1kB time=00:00:03.76 bitrate=   1.6kbits/s speed=0.00574x    frame=  279 fps=0.4 q=34.0 size=       1kB time=00:00:03.78 bitrate=   1.6kbits/s speed=0.00577x    frame=  280 fps=0.4 q=34.0 size=       1kB time=00:00:03.80 bitrate=   1.5kbits/s speed=0.00579x    frame=  281 fps=0.4 q=34.0 size=       1kB time=00:00:03.82 bitrate=   1.5kbits/s speed=0.00581x    frame=  282 fps=0.4 q=34.0 size=       1kB time=00:00:03.84 bitrate=   1.5kbits/s speed=0.00572x    frame=  283 fps=0.4 q=34.0 size=       1kB time=00:00:03.86 bitrate=   1.5kbits/s speed=0.00572x    frame=  284 fps=0.4 q=34.0 size=       1kB time=00:00:03.88 bitrate=   1.5kbits/s speed=0.00566x    frame=  285 fps=0.4 q=34.0 size=       1kB time=00:00:03.90 bitrate=   1.5kbits/s speed=0.00567x    frame=  286 fps=0.4 q=34.0 size=       1kB time=00:00:03.92 bitrate=   1.5kbits/s speed=0.00568x    frame=  289 fps=0.4 q=34.0 size=       1kB time=00:00:03.98 bitrate=   1.5kbits/s speed=0.00574x    frame=  290 fps=0.4 q=34.0 size=       1kB time=00:00:04.00 bitrate=   1.5kbits/s speed=0.00561x    frame=  293 fps=0.4 q=33.0 size=       1kB time=00:00:04.06 bitrate=   1.4kbits/s speed=0.00568x    frame=  294 fps=0.4 q=33.0 size=       1kB time=00:00:04.08 bitrate=   1.4kbits/s speed=0.0057x    frame=  295 fps=0.4 q=33.0 size=       1kB time=00:00:04.10 bitrate=   1.4kbits/s speed=0.00572x    frame=  296 fps=0.4 q=33.0 size=       1kB time=00:00:04.12 bitrate=   1.4kbits/s speed=0.00562x    frame=  297 fps=0.4 q=33.0 size=    5166kB time=00:00:04.14 bitrate=10219.0kbits/s speed=0.00555x    frame=  298 fps=0.4 q=33.0 size=    5166kB time=00:00:04.16 bitrate=10169.9kbits/s speed=0.00557x    frame=  299 fps=0.4 q=33.0 size=    5166kB time=00:00:04.18 bitrate=10121.2kbits/s speed=0.00559x    frame=  302 fps=0.4 q=33.0 size=    5166kB time=00:00:04.24 bitrate=9978.0kbits/s speed=0.00563x    frame=  303 fps=0.4 q=33.0 size=    5166kB time=00:00:04.26 bitrate=9931.2kbits/s speed=0.00555x    frame=  304 fps=0.4 q=33.0 size=    5166kB time=00:00:04.28 bitrate=9884.8kbits/s speed=0.00556x    frame=  305 fps=0.4 q=33.0 size=    5166kB time=00:00:04.30 bitrate=9838.8kbits/s speed=0.00557x    frame=  306 fps=0.4 q=33.0 size=    5166kB time=00:00:04.32 bitrate=9793.3kbits/s speed=0.00559x    frame=  307 fps=0.4 q=33.0 size=    5166kB time=00:00:04.34 bitrate=9748.2kbits/s speed=0.00552x    frame=  308 fps=0.4 q=33.0 size=    5166kB time=00:00:04.36 bitrate=9703.5kbits/s speed=0.00554x    frame=  309 fps=0.4 q=33.0 size=    5166kB time=00:00:04.38 bitrate=9659.2kbits/s speed=0.00553x    frame=  310 fps=0.4 q=33.0 size=    5166kB time=00:00:04.40 bitrate=9615.3kbits/s speed=0.00554x    frame=  311 fps=0.4 q=34.0 size=    5166kB time=00:00:04.42 bitrate=9571.8kbits/s speed=0.00555x    frame=  312 fps=0.4 q=34.0 size=    5166kB time=00:00:04.44 bitrate=9528.7kbits/s speed=0.00557x    frame=  313 fps=0.4 q=33.0 size=    5166kB time=00:00:04.46 bitrate=9486.0kbits/s speed=0.00551x    frame=  315 fps=0.4 q=34.0 size=    5166kB time=00:00:04.50 bitrate=9401.7kbits/s speed=0.00552x    frame=  316 fps=0.4 q=34.0 size=    5166kB time=00:00:04.52 bitrate=9360.1kbits/s speed=0.00554x    frame=  317 fps=0.4 q=33.0 size=    5166kB time=00:00:04.54 bitrate=9318.8kbits/s speed=0.00555x    frame=  319 fps=0.4 q=33.0 size=    5166kB time=00:00:04.58 bitrate=9237.5kbits/s speed=0.00543x    frame=  320 fps=0.4 q=33.0 size=    5166kB time=00:00:04.60 bitrate=9197.3kbits/s speed=0.00545x    frame=  321 fps=0.4 q=33.0 size=    5166kB time=00:00:04.62 bitrate=9157.5kbits/s speed=0.00546x    frame=  325 fps=0.4 q=33.0 size=    5166kB time=00:00:04.70 bitrate=9001.7kbits/s speed=0.00543x    frame=  326 fps=0.4 q=33.0 size=    5166kB time=00:00:04.72 bitrate=8963.5kbits/s speed=0.00545x    frame=  327 fps=0.4 q=34.0 size=    5166kB time=00:00:04.74 bitrate=8925.7kbits/s speed=0.00545x    frame=  328 fps=0.4 q=34.0 size=    5166kB time=00:00:04.76 bitrate=8888.2kbits/s speed=0.00546x    frame=  329 fps=0.4 q=34.0 size=    5166kB time=00:00:04.78 bitrate=8851.1kbits/s speed=0.00541x    frame=  330 fps=0.4 q=34.0 size=    5166kB time=00:00:04.80 bitrate=8814.2kbits/s speed=0.00542x    frame=  331 fps=0.4 q=34.0 size=    5166kB time=00:00:04.82 bitrate=8777.6kbits/s speed=0.00543x    frame=  332 fps=0.4 q=31.0 size=    5166kB time=00:00:04.84 bitrate=8741.4kbits/s speed=0.00544x    frame=  333 fps=0.4 q=34.0 size=    5166kB time=00:00:04.86 bitrate=8705.4kbits/s speed=0.00545x    frame=  334 fps=0.4 q=34.0 size=    5166kB time=00:00:04.88 bitrate=8669.7kbits/s speed=0.00547x    frame=  335 fps=0.4 q=34.0 size=    5166kB time=00:00:04.90 bitrate=8634.3kbits/s speed=0.00543x    frame=  336 fps=0.4 q=34.0 size=    5166kB time=00:00:04.92 bitrate=8599.2kbits/s speed=0.00545x    frame=  337 fps=0.4 q=34.0 size=    6152kB time=00:00:04.94 bitrate=10199.2kbits/s speed=0.00546x    frame=  341 fps=0.4 q=34.0 size=    6152kB time=00:00:05.02 bitrate=10036.7kbits/s speed=0.00551x    frame=  342 fps=0.4 q=34.0 size=    6152kB time=00:00:05.04 bitrate=9996.9kbits/s speed=0.00553x    frame=  343 fps=0.4 q=35.0 size=    6152kB time=00:00:05.06 bitrate=9957.4kbits/s speed=0.00552x    frame=  347 fps=0.4 q=35.0 size=    6152kB time=00:00:05.14 bitrate=9802.4kbits/s speed=0.0056x    frame=  349 fps=0.4 q=35.0 size=    6152kB time=00:00:05.18 bitrate=9726.7kbits/s speed=0.00559x    frame=  350 fps=0.4 q=35.0 size=    6152kB time=00:00:05.20 bitrate=9689.3kbits/s speed=0.00561x    frame=  351 fps=0.4 q=35.0 size=    6152kB time=00:00:05.22 bitrate=9652.2kbits/s speed=0.00562x    frame=  353 fps=0.4 q=35.0 size=    6152kB time=00:00:05.26 bitrate=9578.8kbits/s speed=0.00566x    frame=  355 fps=0.4 q=35.0 size=    6152kB time=00:00:05.30 bitrate=9506.5kbits/s speed=0.00566x    frame=  356 fps=0.4 q=35.0 size=    6152kB time=00:00:05.32 bitrate=9470.8kbits/s speed=0.00566x    frame=  357 fps=0.4 q=35.0 size=    6152kB time=00:00:05.34 bitrate=9435.3kbits/s speed=0.00566x    frame=  359 fps=0.4 q=35.0 size=    6152kB time=00:00:05.38 bitrate=9365.2kbits/s speed=0.00567x    frame=  360 fps=0.4 q=35.0 size=    6152kB time=00:00:05.40 bitrate=9330.5kbits/s speed=0.00568x    frame=  361 fps=0.4 q=35.0 size=    6152kB time=00:00:05.42 bitrate=9296.1kbits/s speed=0.0057x    frame=  362 fps=0.4 q=35.0 size=    6152kB time=00:00:05.44 bitrate=9261.9kbits/s speed=0.00571x    frame=  363 fps=0.4 q=35.0 size=    6152kB time=00:00:05.46 bitrate=9228.0kbits/s speed=0.00572x    frame=  364 fps=0.4 q=35.0 size=    6152kB time=00:00:05.48 bitrate=9194.3kbits/s speed=0.00573x    frame=  365 fps=0.4 q=35.0 size=    6152kB time=00:00:05.50 bitrate=9160.9kbits/s speed=0.00572x    frame=  367 fps=0.4 q=35.0 size=    6152kB time=00:00:05.54 bitrate=9094.8kbits/s speed=0.00575x    frame=  368 fps=0.4 q=35.0 size=    6152kB time=00:00:05.56 bitrate=9062.1kbits/s speed=0.00577x    frame=  369 fps=0.4 q=35.0 size=    6152kB time=00:00:05.58 bitrate=9029.6kbits/s speed=0.00575x    frame=  371 fps=0.4 q=35.0 size=    6152kB time=00:00:05.62 bitrate=8965.3kbits/s speed=0.00575x    frame=  372 fps=0.4 q=35.0 size=    6152kB time=00:00:05.64 bitrate=8933.6kbits/s speed=0.00576x    frame=  374 fps=0.4 q=35.0 size=    6152kB time=00:00:05.68 bitrate=8870.7kbits/s speed=0.00575x    frame=  375 fps=0.4 q=35.0 size=    6152kB time=00:00:05.70 bitrate=8839.5kbits/s speed=0.00576x    frame=  376 fps=0.4 q=35.0 size=    6152kB time=00:00:05.72 bitrate=8808.6kbits/s speed=0.00578x    frame=  377 fps=0.4 q=35.0 size=    6152kB time=00:00:05.74 bitrate=8777.9kbits/s speed=0.00579x    frame=  378 fps=0.4 q=35.0 size=    6152kB time=00:00:05.76 bitrate=8747.5kbits/s speed=0.00581x    frame=  380 fps=0.4 q=35.0 size=    6152kB time=00:00:05.80 bitrate=8687.2kbits/s speed=0.00578x    frame=  381 fps=0.4 q=35.0 size=    6152kB time=00:00:05.82 bitrate=8657.3kbits/s speed=0.00579x    frame=  384 fps=0.4 q=35.0 size=    6152kB time=00:00:05.88 bitrate=8569.0kbits/s speed=0.00585x    frame=  385 fps=0.4 q=35.0 size=    6152kB time=00:00:05.90 bitrate=8539.9kbits/s speed=0.00586x    frame=  386 fps=0.4 q=35.0 size=    6152kB time=00:00:05.92 bitrate=8511.1kbits/s speed=0.0058x    frame=  387 fps=0.4 q=35.0 size=    6152kB time=00:00:05.94 bitrate=8482.4kbits/s speed=0.00582x    frame=  389 fps=0.4 q=35.0 size=    6152kB time=00:00:05.98 bitrate=8425.7kbits/s speed=0.00581x    frame=  390 fps=0.4 q=35.0 size=    6152kB time=00:00:06.00 bitrate=8397.6kbits/s speed=0.00582x    frame=  391 fps=0.4 q=35.0 size=    6152kB time=00:00:06.02 bitrate=8369.7kbits/s speed=0.00583x    frame=  392 fps=0.4 q=35.0 size=    6152kB time=00:00:06.04 bitrate=8342.0kbits/s speed=0.00583x    frame=  395 fps=0.4 q=35.0 size=    6152kB time=00:00:06.10 bitrate=8260.0kbits/s speed=0.0058x    frame=  397 fps=0.4 q=34.0 size=    6152kB time=00:00:06.14 bitrate=8206.2kbits/s speed=0.00584x    frame=  398 fps=0.4 q=34.0 size=    6152kB time=00:00:06.16 bitrate=8179.5kbits/s speed=0.00583x    frame=  400 fps=0.4 q=34.0 size=    6152kB time=00:00:06.20 bitrate=8126.8kbits/s speed=0.00586x    frame=  401 fps=0.4 q=34.0 size=    6152kB time=00:00:06.22 bitrate=8100.7kbits/s speed=0.00582x    frame=  403 fps=0.4 q=34.0 size=    6152kB time=00:00:06.26 bitrate=8048.9kbits/s speed=0.0058x    frame=  404 fps=0.4 q=34.0 size=    6152kB time=00:00:06.28 bitrate=8023.3kbits/s speed=0.00582x    frame=  405 fps=0.4 q=34.0 size=    6152kB time=00:00:06.30 bitrate=7997.8kbits/s speed=0.00583x    frame=  407 fps=0.4 q=34.0 size=    6152kB time=00:00:06.34 bitrate=7947.4kbits/s speed=0.00583x    frame=  409 fps=0.4 q=34.0 size=    6152kB time=00:00:06.38 bitrate=7897.5kbits/s speed=0.00579x    frame=  411 fps=0.4 q=34.0 size=    6152kB time=00:00:06.42 bitrate=7848.3kbits/s speed=0.00583x    frame=  412 fps=0.4 q=34.0 size=    6152kB time=00:00:06.44 bitrate=7824.0kbits/s speed=0.00584x    frame=  413 fps=0.4 q=34.0 size=    6152kB time=00:00:06.46 bitrate=7799.7kbits/s speed=0.00584x    frame=  414 fps=0.4 q=34.0 size=    6152kB time=00:00:06.48 bitrate=7775.7kbits/s speed=0.00585x    frame=  415 fps=0.4 q=34.0 size=    6152kB time=00:00:06.50 bitrate=7751.8kbits/s speed=0.00581x    frame=  416 fps=0.4 q=34.0 size=    6152kB time=00:00:06.52 bitrate=7728.0kbits/s speed=0.00576x    frame=  417 fps=0.4 q=34.0 size=    6152kB time=00:00:06.54 bitrate=7704.4kbits/s speed=0.00577x    frame=  418 fps=0.4 q=34.0 size=    6152kB time=00:00:06.56 bitrate=7680.9kbits/s speed=0.00578x    frame=  421 fps=0.4 q=34.0 size=    6152kB time=00:00:06.62 bitrate=7611.3kbits/s speed=0.00582x    frame=  422 fps=0.4 q=34.0 size=    6152kB time=00:00:06.64 bitrate=7588.3kbits/s speed=0.00576x    frame=  423 fps=0.4 q=34.0 size=    6152kB time=00:00:06.66 bitrate=7565.6kbits/s speed=0.00577x    frame=  424 fps=0.4 q=34.0 size=    6152kB time=00:00:06.68 bitrate=7542.9kbits/s speed=0.00578x    frame=  425 fps=0.4 q=34.0 size=    6152kB time=00:00:06.70 bitrate=7520.4kbits/s speed=0.00579x    frame=  426 fps=0.4 q=34.0 size=    6152kB time=00:00:06.72 bitrate=7498.0kbits/s speed=0.00579x    frame=  427 fps=0.4 q=34.0 size=    6152kB time=00:00:06.74 bitrate=7475.8kbits/s speed=0.00572x    frame=  428 fps=0.4 q=34.0 size=    6152kB time=00:00:06.76 bitrate=7453.7kbits/s speed=0.00574x    frame=  429 fps=0.4 q=34.0 size=    6152kB time=00:00:06.78 bitrate=7431.7kbits/s speed=0.00574x    frame=  432 fps=0.4 q=34.0 size=    6152kB time=00:00:06.84 bitrate=7366.5kbits/s speed=0.00579x    frame=  433 fps=0.4 q=34.0 size=    6152kB time=00:00:06.86 bitrate=7345.0kbits/s speed=0.00573x    frame=  434 fps=0.4 q=34.0 size=    6152kB time=00:00:06.88 bitrate=7323.7kbits/s speed=0.00574x    frame=  435 fps=0.4 q=34.0 size=    6152kB time=00:00:06.90 bitrate=7302.4kbits/s speed=0.00574x    frame=  438 fps=0.4 q=34.0 size=    6152kB time=00:00:06.96 bitrate=7239.5kbits/s speed=0.00569x    frame=  439 fps=0.4 q=34.0 size=    6152kB time=00:00:06.98 bitrate=7218.8kbits/s speed=0.0057x    frame=  440 fps=0.4 q=34.0 size=    6152kB time=00:00:07.00 bitrate=7198.1kbits/s speed=0.00571x    frame=  443 fps=0.4 q=34.0 size=    6152kB time=00:00:07.06 bitrate=7137.0kbits/s speed=0.00576x    frame=  444 fps=0.4 q=34.0 size=    6152kB time=00:00:07.08 bitrate=7116.8kbits/s speed=0.0057x    frame=  445 fps=0.4 q=34.0 size=    6152kB time=00:00:07.10 bitrate=7096.8kbits/s speed=0.0057x    frame=  448 fps=0.4 q=34.0 size=    6152kB time=00:00:07.16 bitrate=7037.3kbits/s speed=0.00567x    frame=  449 fps=0.4 q=34.0 size=    6152kB time=00:00:07.18 bitrate=7017.7kbits/s speed=0.00568x    frame=  450 fps=0.4 q=34.0 size=    6152kB time=00:00:07.20 bitrate=6998.2kbits/s speed=0.00569x    frame=  451 fps=0.4 q=34.0 size=    6152kB time=00:00:07.22 bitrate=6978.8kbits/s speed=0.0057x    frame=  452 fps=0.4 q=34.0 size=    6152kB time=00:00:07.24 bitrate=6959.6kbits/s speed=0.00571x    frame=  454 fps=0.4 q=34.0 size=    6152kB time=00:00:07.28 bitrate=6921.3kbits/s speed=0.00568x    frame=  455 fps=0.4 q=34.0 size=    6152kB time=00:00:07.30 bitrate=6902.4kbits/s speed=0.00568x    frame=  457 fps=0.4 q=34.0 size=    6152kB time=00:00:07.34 bitrate=6864.8kbits/s speed=0.0057x    frame=  458 fps=0.4 q=34.0 size=    6152kB time=00:00:07.36 bitrate=6846.1kbits/s speed=0.00564x    frame=  459 fps=0.4 q=34.0 size=    6152kB time=00:00:07.38 bitrate=6827.6kbits/s speed=0.00565x    frame=  460 fps=0.4 q=34.0 size=    6152kB time=00:00:07.40 bitrate=6809.1kbits/s speed=0.00566x    frame=  462 fps=0.4 q=34.0 size=    6152kB time=00:00:07.44 bitrate=6772.5kbits/s speed=0.00569x    frame=  463 fps=0.4 q=34.0 size=    6152kB time=00:00:07.46 bitrate=6754.3kbits/s speed=0.00569x    frame=  464 fps=0.4 q=34.0 size=    6152kB time=00:00:07.48 bitrate=6736.3kbits/s speed=0.00565x    frame=  465 fps=0.4 q=34.0 size=    6152kB time=00:00:07.50 bitrate=6718.3kbits/s speed=0.00565x    frame=  466 fps=0.4 q=34.0 size=    6152kB time=00:00:07.52 bitrate=6700.5kbits/s speed=0.00566x    frame=  468 fps=0.3 q=34.0 size=    6152kB time=00:00:07.56 bitrate=6665.0kbits/s speed=0.00562x    frame=  469 fps=0.3 q=34.0 size=    6152kB time=00:00:07.58 bitrate=6647.4kbits/s speed=0.00563x    frame=  470 fps=0.3 q=34.0 size=    6152kB time=00:00:07.60 bitrate=6629.9kbits/s speed=0.00564x    frame=  472 fps=0.3 q=34.0 size=    6152kB time=00:00:07.64 bitrate=6595.2kbits/s speed=0.00566x    frame=  473 fps=0.4 q=34.0 size=    6152kB time=00:00:07.66 bitrate=6578.0kbits/s speed=0.00567x    frame=  474 fps=0.3 q=34.0 size=    6152kB time=00:00:07.68 bitrate=6560.9kbits/s speed=0.0056x    frame=  476 fps=0.3 q=34.0 size=    6152kB time=00:00:07.72 bitrate=6526.9kbits/s speed=0.00563x    frame=  477 fps=0.3 q=34.0 size=    6152kB time=00:00:07.74 bitrate=6510.0kbits/s speed=0.00564x    frame=  478 fps=0.3 q=34.0 size=    6152kB time=00:00:07.76 bitrate=6493.3kbits/s speed=0.00565x    frame=  479 fps=0.3 q=34.0 size=    6152kB time=00:00:07.78 bitrate=6476.6kbits/s speed=0.00566x    frame=  480 fps=0.3 q=34.0 size=    6152kB time=00:00:07.80 bitrate=6460.0kbits/s speed=0.00558x    frame=  481 fps=0.3 q=34.0 size=    6152kB time=00:00:07.82 bitrate=6443.4kbits/s speed=0.00559x    frame=  482 fps=0.3 q=34.0 size=    6152kB time=00:00:07.84 bitrate=6427.0kbits/s speed=0.00559x    frame=  486 fps=0.3 q=34.0 size=    6152kB time=00:00:07.92 bitrate=6362.1kbits/s speed=0.00557x    frame=  487 fps=0.3 q=34.0 size=    6152kB time=00:00:07.94 bitrate=6346.1kbits/s speed=0.00557x    frame=  489 fps=0.3 q=34.0 size=    6152kB time=00:00:07.98 bitrate=6314.3kbits/s speed=0.0056x    frame=  492 fps=0.3 q=34.0 size=    6152kB time=00:00:08.04 bitrate=6267.2kbits/s speed=0.00558x    frame=  493 fps=0.3 q=34.0 size=    6152kB time=00:00:08.06 bitrate=6251.6kbits/s speed=0.00558x    frame=  495 fps=0.3 q=34.0 size=    6152kB time=00:00:08.10 bitrate=6220.7kbits/s speed=0.00556x    frame=  496 fps=0.3 q=34.0 size=    6152kB time=00:00:08.12 bitrate=6205.4kbits/s speed=0.00557x    frame=  497 fps=0.3 q=34.0 size=    6152kB time=00:00:08.14 bitrate=6190.2kbits/s speed=0.00558x    frame=  499 fps=0.3 q=34.0 size=    6152kB time=00:00:08.18 bitrate=6159.9kbits/s speed=0.00559x    frame=  500 fps=0.3 q=34.0 size=    6152kB time=00:00:08.20 bitrate=6144.9kbits/s speed=0.00553x    frame=  500 fps=0.3 q=-1.0 Lsize=   13269kB time=00:00:09.94 bitrate=10934.8kbits/s speed=0.00546x    
video:13265kB audio:0kB subtitle:0kB other streams:0kB global headers:0kB muxing overhead: 0.034278%
bench: utime=7104.948s
bench: maxrss=6511668kB
[libx264 @ 0x35d6120] frame I:3     Avg QP:29.58  size:661234
[libx264 @ 0x35d6120] frame P:45    Avg QP:33.46  size: 94195
[libx264 @ 0x35d6120] frame B:452   Avg QP:36.54  size: 16283
[libx264 @ 0x35d6120] consecutive B-frames:  0.6%  0.0%  0.0%  0.0%  0.0%  0.0%  1.4%  3.2%  7.2% 30.0% 19.8%  9.6%  5.2% 14.0%  9.0%  0.0%  0.0%
[libx264 @ 0x35d6120] mb I  I16..4: 14.4% 80.2%  5.4%
[libx264 @ 0x35d6120] mb P  I16..4:  0.0%  0.3%  0.0%  P16..4: 42.4% 28.2%  6.4%  1.3%  0.0%    skip:21.4%
[libx264 @ 0x35d6120] mb B  I16..4:  0.0%  0.0%  0.0%  B16..8: 43.1%  3.5%  0.1%  direct: 0.1%  skip:53.2%  L0:52.8% L1:47.0% BI: 0.1%
[libx264 @ 0x35d6120] final ratefactor: 26.24
[libx264 @ 0x35d6120] 8x8 transform intra:80.6% inter:64.9%
[libx264 @ 0x35d6120] direct mvs  spatial:98.7% temporal:1.3%
[libx264 @ 0x35d6120] coded y,uvDC,uvAC intra: 94.6% 79.9% 62.6% inter: 1.6% 1.2% 0.0%
[libx264 @ 0x35d6120] i16 v,h,dc,p: 17% 28% 22% 33%
[libx264 @ 0x35d6120] i8 v,h,dc,ddl,ddr,vr,hd,vl,hu:  4%  6%  1% 15% 19% 15% 19% 10% 12%
[libx264 @ 0x35d6120] i4 v,h,dc,ddl,ddr,vr,hd,vl,hu:  3%  3%  1% 14% 18% 14% 20% 11% 15%
[libx264 @ 0x35d6120] i8c dc,h,v,p: 46% 26% 15% 13%
[libx264 @ 0x35d6120] Weighted P-Frames: Y:4.4% UV:2.2%
[libx264 @ 0x35d6120] ref P L0: 57.4% 14.7% 12.9%  3.6%  2.9%  2.4%  2.1%  0.6%  0.6%  0.5%  0.5%  0.5%  0.4%  0.4%  0.4%  0.1%
[libx264 @ 0x35d6120] ref B L0: 78.5%  7.0%  6.2%  1.6%  1.6%  1.4%  1.3%  0.3%  0.4%  0.4%  0.3%  0.3%  0.3%  0.2%  0.0%
[libx264 @ 0x35d6120] ref B L1: 93.2%  6.8%
[libx264 @ 0x35d6120] kb/s:10865.99
